<svg width="250" height="250" viewBox="0 0 250 250" fill="none" xmlns="http://www.w3.org/2000/svg">
<rect width="250" height="250" fill="#C4C4C4"/>
<path d="M31 138.6H43.96V149.4H31V138.6Z" fill="white"/>
<path d="M74.9369 149.4H61.9769V109.08H46.8569V99H90.0569V109.08H74.9369V149.4Z" fill="white"/>
<path d="M139.025 149.4H126.065V128.88H108.065V149.4H95.1053V99H108.065V118.8H126.065V99H139.025V149.4Z" fill="white"/>
<path d="M171.459 149.4H145.539V139.32H152.019V109.08H145.539V99H171.459V109.08H164.979V139.32H171.459V149.4Z" fill="white"/>
<path d="M176.421 138.96C189.573 139.68 198.477 140.04 203.133 140.04C204.237 140.04 205.101 139.728 205.725 139.104C206.397 138.432 206.733 137.544 206.733 136.44V129.96H190.173C185.133 129.96 181.461 128.832 179.157 126.576C176.901 124.272 175.773 120.6 175.773 115.56V113.4C175.773 108.36 176.901 104.712 179.157 102.456C181.461 100.152 185.133 99 190.173 99H215.445V109.08H193.053C190.173 109.08 188.733 110.52 188.733 113.4V114.84C188.733 117.72 190.173 119.16 193.053 119.16H206.013C210.717 119.16 214.173 120.264 216.381 122.472C218.589 124.68 219.693 128.136 219.693 132.84V136.44C219.693 141.144 218.589 144.6 216.381 146.808C214.173 149.016 210.717 150.12 206.013 150.12C203.565 150.12 200.973 150.072 198.237 149.976L191.613 149.688C186.717 149.448 181.653 149.112 176.421 148.68V138.96Z" fill="white"/>
</svg>
