<svg width="176" height="84" viewBox="0 0 176 84" fill="none" xmlns="http://www.w3.org/2000/svg">
<path d="M92 64.7635L92.3981 63.9672C92.7963 64.3653 93.2939 64.5644 93.692 64.7635C94.1897 64.9625 94.6873 64.9625 95.2845 64.9625C95.9813 64.9625 96.5784 64.863 96.877 64.5644C97.1756 64.2658 97.4742 63.8677 97.4742 63.37C97.4742 63.0714 97.3747 62.8724 97.1756 62.6733C96.9766 62.4742 96.7775 62.3747 96.4789 62.2752C96.1803 62.1756 95.7822 62.0761 95.2845 61.9766C94.5878 61.7775 94.0902 61.678 93.5925 61.4789C93.1944 61.2799 92.7963 61.0808 92.4977 60.7822C92.1991 60.4836 92.0995 60.0855 92.0995 59.4883C92.0995 58.9906 92.1991 58.5925 92.4977 58.1944C92.7963 57.7962 93.0948 57.4977 93.5925 57.2986C94.0902 57.0995 94.5878 57 95.2845 57C95.8817 57 96.4789 57.0995 96.9766 57.2986C97.4742 57.4977 97.9719 57.7963 98.2705 58.0949L97.8724 58.8911C97.4742 58.493 97.0761 58.2939 96.5784 58.0949C96.0808 57.8958 95.6827 57.8958 95.185 57.8958C94.4883 57.8958 93.9906 57.9953 93.5925 58.2939C93.1944 58.5925 92.9953 58.9906 92.9953 59.4883C92.9953 59.8864 93.1944 60.2845 93.493 60.4836C93.7916 60.6827 94.3888 60.8817 94.9859 61.0808C95.7822 61.2799 96.2799 61.4789 96.7775 61.5785C97.2752 61.678 97.5738 61.9766 97.8724 62.2752C98.171 62.5738 98.2705 62.9719 98.2705 63.4695C98.2705 63.9672 98.171 64.3653 97.8724 64.7635C97.5738 65.1616 97.2752 65.4602 96.7775 65.6592C96.2799 65.8583 95.6827 65.9578 95.0855 65.9578C93.8911 65.8583 92.7963 65.4602 92 64.7635Z" fill="#8329E4"/>
<path d="M100.958 65.4602C100.56 65.1616 100.162 64.863 99.9626 64.3653C99.7635 63.8677 99.5645 63.37 99.5645 62.6733C99.5645 62.0761 99.664 61.4789 99.9626 60.9813C100.162 60.4836 100.56 60.185 100.958 59.8864C101.356 59.5878 101.854 59.4883 102.451 59.4883C103.048 59.4883 103.546 59.5878 103.944 59.8864C104.342 60.185 104.74 60.4836 104.939 60.9813C105.138 61.4789 105.337 61.9766 105.337 62.6733C105.337 63.2705 105.238 63.8677 104.939 64.3653C104.74 64.863 104.342 65.1616 103.944 65.4602C103.546 65.7588 103.048 65.8583 102.451 65.8583C101.854 65.8583 101.356 65.6592 100.958 65.4602ZM103.844 64.3653C104.143 63.9672 104.342 63.37 104.342 62.6733C104.342 61.9766 104.143 61.3794 103.844 60.9813C103.546 60.5831 103.048 60.3841 102.451 60.3841C101.854 60.3841 101.456 60.5831 101.057 60.9813C100.759 61.3794 100.56 61.9766 100.56 62.6733C100.56 63.37 100.759 63.9672 101.057 64.3653C101.356 64.7634 101.854 64.9625 102.451 64.9625C103.048 64.9625 103.546 64.7634 103.844 64.3653Z" fill="#8329E4"/>
<path d="M107.826 65.4602C107.427 65.1616 107.029 64.863 106.83 64.3653C106.631 63.8677 106.432 63.37 106.432 62.6733C106.432 61.9766 106.532 61.4789 106.83 60.9813C107.129 60.4836 107.427 60.185 107.826 59.8864C108.224 59.5878 108.821 59.4883 109.418 59.4883C109.816 59.4883 110.214 59.5878 110.612 59.6873C111.011 59.7869 111.309 59.9859 111.508 60.2845L111.21 60.9813C110.612 60.4836 110.015 60.2845 109.518 60.2845C108.92 60.2845 108.423 60.4836 108.025 60.8817C107.726 61.2798 107.527 61.877 107.527 62.5738C107.527 63.2705 107.726 63.8677 108.025 64.2658C108.323 64.6639 108.821 64.863 109.518 64.863C110.115 64.863 110.712 64.6639 111.21 64.1663L111.508 64.863C111.21 65.062 110.911 65.2611 110.513 65.4602C110.115 65.5597 109.717 65.6592 109.319 65.6592C108.821 65.8583 108.323 65.6592 107.826 65.4602Z" fill="#8329E4"/>
<path d="M112.703 57.0996H113.897V58.1944H112.703V57.0996ZM112.802 65.7588V59.6874H113.797V65.7588H112.802Z" fill="#8329E4"/>
<path d="M119.869 60.1849C120.267 60.583 120.466 61.1802 120.466 61.9765V65.7587H119.471V64.7633C119.271 65.1615 119.072 65.3605 118.774 65.5596C118.475 65.7587 118.077 65.8582 117.679 65.8582C117.281 65.8582 116.982 65.7586 116.584 65.6591C116.286 65.4601 115.987 65.261 115.788 64.9624C115.589 64.6638 115.489 64.3652 115.489 64.0666C115.489 63.569 115.589 63.2704 115.788 62.9718C115.987 62.6732 116.385 62.5736 116.883 62.4741C117.38 62.3746 118.177 62.2751 119.072 62.2751H119.371V61.8769C119.371 61.3793 119.271 60.9811 119.072 60.7821C118.873 60.583 118.575 60.4835 118.077 60.4835C117.38 60.4835 116.684 60.6826 115.987 61.0807L115.688 60.3839C115.987 60.1849 116.385 59.9858 116.783 59.8863C117.181 59.7868 117.679 59.6872 118.077 59.6872C118.873 59.5877 119.471 59.7868 119.869 60.1849ZM118.973 64.5643C119.271 64.2657 119.471 63.768 119.471 63.2704V62.8722H119.271C118.575 62.8722 117.978 62.8722 117.579 62.9718C117.181 63.0713 116.883 63.1708 116.783 63.2704C116.584 63.3699 116.584 63.6685 116.584 63.8675C116.584 64.1661 116.684 64.4647 116.982 64.6638C117.181 64.8629 117.48 64.9624 117.878 64.9624C118.177 65.0619 118.575 64.8629 118.973 64.5643Z" fill="#8329E4"/>
<path d="M122.257 65.7588V57H123.253V65.7588H122.257Z" fill="#8329E4"/>
<path d="M134.5 57H135.495V65.7588H134.699L129.424 58.692V65.7588H128.429V57H129.225L134.5 64.0667V57Z" fill="#8329E4"/>
<path d="M142.562 62.8723H138.183C138.183 63.5691 138.382 64.0667 138.78 64.4649C139.178 64.863 139.576 64.9625 140.273 64.9625C140.97 64.9625 141.666 64.7635 142.164 64.2658L142.463 64.9625C142.164 65.1616 141.865 65.3606 141.467 65.5597C141.069 65.7588 140.671 65.7588 140.173 65.7588C139.278 65.7588 138.481 65.4602 137.984 64.9625C137.486 64.3653 137.188 63.6686 137.188 62.6733C137.188 62.0761 137.287 61.4789 137.586 60.9813C137.785 60.4836 138.183 60.185 138.581 59.8864C138.979 59.5878 139.477 59.4883 140.074 59.4883C140.87 59.4883 141.467 59.7869 141.965 60.2845C142.463 60.7822 142.662 61.5784 142.662 62.4742V62.8723H142.562ZM138.68 60.8817C138.382 61.1803 138.183 61.678 138.083 62.2752H141.567C141.567 61.678 141.368 61.1803 141.069 60.8817C140.771 60.5831 140.373 60.3841 139.875 60.3841C139.477 60.3841 138.979 60.4836 138.68 60.8817Z" fill="#8329E4"/>
<path d="M147.14 64.9625V65.7587C146.941 65.7587 146.742 65.7587 146.543 65.7587C145.846 65.7587 145.249 65.5597 144.851 65.1616C144.453 64.7634 144.254 64.2658 144.254 63.5691V60.4836H143.06V59.6873H144.254V57.8958H145.249V59.6873H146.941V60.4836H145.249V63.5691C145.249 64.5644 145.647 64.9625 146.543 64.9625C146.842 65.062 146.941 65.062 147.14 64.9625Z" fill="#8329E4"/>
<path d="M156.496 59.6873H157.492L155.203 65.7587H154.207L152.515 61.0807L150.823 65.7587H149.828L147.539 59.6873H148.534L150.226 64.5643L152.017 59.6873H152.913L154.605 64.5643L156.496 59.6873Z" fill="#8329E4"/>
<path d="M159.582 65.4602C159.184 65.1616 158.786 64.863 158.587 64.3653C158.388 63.8677 158.188 63.37 158.188 62.6733C158.188 62.0761 158.288 61.4789 158.587 60.9813C158.786 60.4836 159.184 60.185 159.582 59.8864C159.98 59.5878 160.478 59.4883 161.075 59.4883C161.672 59.4883 162.17 59.5878 162.568 59.8864C162.966 60.185 163.364 60.4836 163.563 60.9813C163.762 61.4789 163.961 61.9766 163.961 62.6733C163.961 63.2705 163.862 63.8677 163.563 64.3653C163.364 64.863 162.966 65.1616 162.568 65.4602C162.17 65.7588 161.672 65.8583 161.075 65.8583C160.478 65.8583 160.08 65.6592 159.582 65.4602ZM162.468 64.3653C162.767 63.9672 162.966 63.37 162.966 62.6733C162.966 61.9766 162.767 61.3794 162.468 60.9813C162.17 60.5831 161.672 60.3841 161.075 60.3841C160.478 60.3841 160.08 60.5831 159.681 60.9813C159.383 61.3794 159.184 61.9766 159.184 62.6733C159.184 63.37 159.383 63.9672 159.681 64.3653C159.98 64.7634 160.478 64.9625 161.075 64.9625C161.772 64.9625 162.17 64.7634 162.468 64.3653Z" fill="#8329E4"/>
<path d="M168.938 60.3841L168.241 60.4837C167.644 60.5832 167.146 60.7823 166.848 61.0809C166.549 61.3795 166.449 61.7776 166.449 62.2752V65.7588H165.454V59.6874H166.449V60.7823C166.748 60.0855 167.445 59.6874 168.44 59.5879H168.838L168.938 60.3841Z" fill="#8329E4"/>
<path d="M175.308 65.7588H174.014L170.928 62.8724V65.7588H169.933V57H170.928V62.4742L173.715 59.7869H175.009L172.023 62.6733L175.308 65.7588Z" fill="#8329E4"/>
<path d="M41.3055 21.5034C30.4565 21.5034 21.6978 30.2622 21.6978 41.1111C21.6978 51.96 30.4565 60.7188 41.3055 60.7188C52.1544 60.7188 60.9132 51.96 60.9132 41.1111C60.9132 30.2622 52.1544 21.5034 41.3055 21.5034ZM41.3055 53.0549C34.7364 53.0549 29.3617 47.6802 29.3617 41.1111C29.3617 34.542 34.7364 29.1673 41.3055 29.1673C47.8745 29.1673 53.2492 34.542 53.2492 41.1111C53.2492 47.6802 47.9741 53.0549 41.3055 53.0549Z" fill="url(#paint0_linear)"/>
<path d="M41.3051 29.1675C34.736 29.1675 29.3613 34.5422 29.3613 41.1113C29.3613 47.6803 34.736 53.055 41.3051 53.055C47.8742 53.055 53.2489 47.6803 53.2489 41.1113C53.2489 34.5422 47.9737 29.1675 41.3051 29.1675ZM41.3051 49.1733C36.8262 49.1733 33.2431 45.5902 33.2431 41.1113C33.2431 36.6323 36.8262 33.0492 41.3051 33.0492C45.784 33.0492 49.3672 36.6323 49.3672 41.1113C49.3672 45.4906 45.784 49.1733 41.3051 49.1733Z" fill="url(#paint1_linear)"/>
<path d="M65.4916 12.9439C67.6354 12.9439 69.3733 11.206 69.3733 9.06215C69.3733 6.91833 67.6354 5.18042 65.4916 5.18042C63.3478 5.18042 61.6099 6.91833 61.6099 9.06215C61.6099 11.206 63.3478 12.9439 65.4916 12.9439Z" fill="#7C7C7C"/>
<path d="M41.7034 82.6158C64.241 82.6158 82.5113 64.3455 82.5113 41.8079C82.5113 19.2703 64.241 1 41.7034 1C19.1658 1 0.895508 19.2703 0.895508 41.8079C0.895508 64.3455 19.1658 82.6158 41.7034 82.6158Z" stroke="url(#paint2_linear)" stroke-width="1.49297" stroke-miterlimit="10"/>
<path d="M90 47.8169H95.838V52.6761H90V47.8169Z" fill="#7C7C7C"/>
<path d="M109.792 52.6761H103.954V34.5352H97.143V30H116.603V34.5352H109.792V52.6761Z" fill="#7C7C7C"/>
<path d="M138.662 52.6761H132.824V43.4437H124.715V52.6761H118.877V30H124.715V38.9085H132.824V30H138.662V52.6761Z" fill="#7C7C7C"/>
<path d="M153.272 52.6761H141.596V48.1408H144.515V34.5352H141.596V30H153.272V34.5352H150.353V48.1408H153.272V52.6761Z" fill="#7C7C7C"/>
<path d="M155.507 47.9789C161.432 48.3028 165.443 48.4648 167.54 48.4648C168.038 48.4648 168.427 48.3244 168.708 48.0437C169.011 47.7413 169.162 47.3418 169.162 46.8451V43.9296H161.702C159.432 43.9296 157.778 43.4221 156.74 42.407C155.724 41.3704 155.216 39.7183 155.216 37.4507V36.4789C155.216 34.2113 155.724 32.57 156.74 31.5549C157.778 30.5183 159.432 30 161.702 30H173.086V34.5352H163C161.702 34.5352 161.054 35.1831 161.054 36.4789V37.1268C161.054 38.4225 161.702 39.0704 163 39.0704H168.838C170.957 39.0704 172.513 39.5671 173.508 40.5606C174.503 41.554 175 43.1089 175 45.2254V46.8451C175 48.9615 174.503 50.5164 173.508 51.5099C172.513 52.5033 170.957 53 168.838 53C167.735 53 166.567 52.9784 165.335 52.9352L162.351 52.8056C160.145 52.6977 157.864 52.5465 155.507 52.3521V47.9789Z" fill="#7C7C7C"/>
<defs>
<linearGradient id="paint0_linear" x1="41.3535" y1="39.4118" x2="41.3535" y2="57.4337" gradientUnits="userSpaceOnUse">
<stop offset="0.0531925" stop-color="#A887F9"/>
<stop offset="1" stop-color="#8224E3"/>
</linearGradient>
<linearGradient id="paint1_linear" x1="29.4293" y1="41.0915" x2="53.2772" y2="41.0915" gradientUnits="userSpaceOnUse">
<stop offset="0.0407835" stop-color="#A887F9"/>
<stop offset="0.9883" stop-color="#8224E3"/>
</linearGradient>
<linearGradient id="paint2_linear" x1="12.3027" y1="71.1415" x2="71.0695" y2="12.3748" gradientUnits="userSpaceOnUse">
<stop offset="2.16308e-06" stop-color="#8224E3"/>
<stop offset="1" stop-color="#A887F9" stop-opacity="0"/>
</linearGradient>
</defs>
</svg>
